<svg style="display:none" xmlns="http://www.w3.org/2000/svg">

    <!-- Navbar icons start-->
    <!-- 1 -->
    <symbol id="chats" >
        <g>
  <title>background</title>
  <rect fill="none" id="canvas_background" height="402" width="582" y="-1" x="-1"/>
 </g>
 <g>
  <title>Layer 1</title>
  <g id="svg_1" fill="none">
   <path id="svg_2" d="m0,0l24,0l0,24l-24,0l0,-24z"/>
   <path id="svg_3" fill="#4a76a8" d="m18.201136,7.506624c2.816411,1.010975 4.798864,3.425535 4.798864,6.243376c0,1.837301 -0.842811,3.503152 -2.211276,4.718139c0.145914,0.703266 0.471808,1.580748 0.97768,2.632447l0.146912,0.300201l0.028638,0.075789c0.04781,0.179794 -0.035487,0.37439 -0.208536,0.460503c-0.083927,0.041764 -0.179857,0.052723 -0.271041,0.030964c-1.793957,-0.428102 -3.122967,-1.011503 -3.986266,-1.750643c-0.705079,0.183839 -1.452353,0.2826 -2.226111,0.2826c-2.785762,0 -5.22823,-1.280159 -6.594213,-3.201892l0.094213,0.001892c5.223283,0 9.55,-3.768431 9.55,-8.55c0,-0.422761 -0.033823,-0.837602 -0.098864,-1.243376zm-9.451136,-5.506624c4.280207,0 7.75,3.022078 7.75,6.75c0,3.727922 -3.469793,6.75 -7.75,6.75c-0.773758,0 -1.521032,-0.098761 -2.226111,-0.2826c-0.863299,0.73914 -2.192309,1.322541 -3.986266,1.750643c-0.091184,0.021759 -0.187114,0.0108 -0.271041,-0.030964c-0.173049,-0.086113 -0.256346,-0.280709 -0.208536,-0.460503l0.028638,-0.07579l0.146912,-0.3002c0.505872,-1.051699 0.831765,-1.929181 0.97768,-2.632447c-1.368465,-1.214987 -2.211276,-2.880838 -2.211276,-4.718139c0,-3.727922 3.469793,-6.75 7.75,-6.75z"/>
  </g>
 </g>
    </symbol>

    <!-- 2 -->
    <symbol id="user">
        <g>
  <title>background</title>
  <rect fill="none" id="canvas_background" height="402" width="582" y="-1" x="-1"/>
 </g>
 <g>
  <title>Layer 1</title>
  <g fill-rule="evenodd" fill="none" id="Page-2">
   <g id="user_24">
    <polygon points="0 0 24 0 24 24 0 24" id="Bounds"/>
    <path fill="#4a76a8" id="Mask" d="m16,8c0,-2.21 -1.79,-4 -4,-4c-2.21,0 -4,1.79 -4,4c0,2.21 1.79,4 4,4c2.21,0 4,-1.79 4,-4zm-12,10l0,0.995c0,0.555046 0.449954,1.005 1.005,1.005l13.99,0c0.555046,0 1.005,-0.449954 1.005,-1.005l0,-0.995c0,-3.5 -5.33,-4.5 -8,-4.5c-2.67,0 -8,1 -8,4.5z"/>
   </g>
  </g>
 </g>
    </symbol>

    <!-- 3 -->
    <symbol id="news">
<g>
  <title>background</title>
  <rect fill="none" id="canvas_background" height="402" width="582" y="-1" x="-1"/>
 </g>
 <g>
  <title>Layer 1</title>
  <g fill-rule="evenodd" fill="none" id="Page-2">
   <g id="followers_24">
    <polygon points="0 0 24 0 24 24 0 24" id="Shape"/>
    <path fill="#4a76a8" id="Mask" d="m4.83814,5.029199c0.271293,0.012949 0.494409,0.028152 0.669349,0.045609c7.036375,0.702166 12.640716,6.266935 13.403884,13.285169c0.022345,0.205488 0.041578,0.472407 0.057697,0.800757l0.000039,-0.000002c0.021666,0.441318 -0.31853,0.81664 -0.759847,0.838306c-0.013067,0.000641 -0.026147,0.000962 -0.039229,0.000962l-1.402105,0.00001c-0.424812,0 -0.775547,-0.332026 -0.79881,-0.756201c-0.015319,-0.279318 -0.033494,-0.506959 -0.054524,-0.682922c-0.666245,-5.574488 -5.154082,-9.975031 -10.768775,-10.506893c-0.105996,-0.01004 -0.235191,-0.019047 -0.387585,-0.027019l-0.000002,0.000028c-0.425019,-0.022235 -0.758232,-0.373335 -0.758232,-0.798936l0.00001,-1.399787c0,-0.441823 0.358168,-0.799991 0.79999,-0.799991c0.012719,0 0.025436,0.000304 0.03814,0.00091zm0.01914,5.030718c0.37938,0.027235 0.588901,0.043806 0.628561,0.049714c4.23379,0.630653 7.601087,3.915134 8.355636,8.107189c0.041714,0.23175 0.077439,0.538803 0.107175,0.921159l-0.000008,0.000001c0.034257,0.440493 -0.295061,0.825354 -0.735554,0.859612c-0.020638,0.001605 -0.04133,0.002408 -0.062029,0.002408l-1.254313,-0.00005c-0.415393,0 -0.761669,-0.317941 -0.797044,-0.731825c-0.013725,-0.160574 -0.029299,-0.295362 -0.046723,-0.404367c-0.484868,-3.033349 -2.879535,-5.429271 -5.912256,-5.916021c-0.007067,-0.001134 -0.14165,-0.012058 -0.403749,-0.032772l0,0.000005c-0.41609,-0.032884 -0.736976,-0.380131 -0.736976,-0.797519l0.000039,-1.259626c0,-0.441806 0.358155,-0.799961 0.799961,-0.799961c0.019112,0 0.038217,0.000685 0.05728,0.002053zm3.261686,9.940083l-3.318966,0c-0.441828,0 -0.8,-0.358172 -0.8,-0.8l0.000044,-3.32382c0,-0.441803 0.358153,-0.799955 0.799956,-0.799955c0.047137,0 0.094182,0.004166 0.140585,0.01245c0.018532,0.003308 0.036322,0.006681 0.05337,0.01012c1.898759,0.382976 3.407842,1.841696 3.863978,3.712886c0.018384,0.075416 0.035485,0.163374 0.051304,0.263875l0.000058,-0.000009c0.068701,0.436487 -0.229448,0.846022 -0.665935,0.914723c-0.041148,0.006477 -0.08274,0.00973 -0.124394,0.00973z"/>
   </g>
  </g>
 </g>
    </symbol>

    <!-- 4 -->
    <symbol id="music">
<g>
  <title>background</title>
  <rect fill="none" id="canvas_background" height="402" width="582" y="-1" x="-1"/>
 </g>
 <g>
  <title>Layer 1</title>
  <g fill-rule="evenodd" fill="none" id="Page-2">
   <g id="music_24">
    <polygon points="0 0 24 0 24 24 0 24" id="Bounds"/>
    <path fill="#4a76a8" id="Mask" d="m19,10.033016l0,4.452485c0,3.471462 -1.235909,4.219539 -3.280802,4.494495c-1.062349,0.142843 -2.719198,-0.414244 -2.719198,-2.432355c0,-0.985805 0.821046,-1.965138 1.845857,-2.166586c0.950423,-0.186826 -0.308249,0.057448 1.841891,-0.352008c0.346365,-0.065959 0.317142,-0.31264 0.317142,-0.579919c0,-0.216916 -0.001107,-2.199151 -0.001799,-3.416112l-0.003091,0l0.00489,-2.576095c0,-0.236556 -0.073072,-0.348024 -0.344927,-0.280031l-7.295458,1.32946c-0.304643,0.076194 -0.364505,0.202709 -0.364505,0.49365l0,2.501782l0,4.983719c0,3.471462 -1.235909,4.219539 -3.280802,4.494495c-1.062349,0.142843 -2.719198,-0.414244 -2.719198,-2.432355c0,-0.985805 0.821046,-1.965138 1.845857,-2.166586c0.950423,-0.186826 -0.308249,0.057448 1.841891,-0.352008c0.346365,-0.065959 0.317142,-0.31264 0.317142,-0.579919c0,-0.315423 -0.002341,-4.363604 -0.002341,-4.363604l0.001652,-0.00007l-0.004201,-2.535805c0,0 -0.004089,-1.573682 0,-2.360514c0.00489,-0.941075 0.510284,-1.286929 2,-1.593333l8,-1.477604c0,0 2,-0.625268 2,1.000429l0,5.914389z"/>
   </g>
  </g>
 </g>
    </symbol>

    <!-- 5 -->
    <symbol id="settings">
<g>
  <title>background</title>
  <rect fill="none" id="canvas_background" height="402" width="582" y="-1" x="-1"/>
 </g>
 <g>
  <title>Layer 1</title>
  <g fill-rule="evenodd" fill="none" id="Page-2">
   <g id="settings_24">
    <rect height="24" width="24" y="0" x="0" id="Bounds"/>
    <path fill="#4a76a8" id="Mask" d="m9.12681,5.052209c1.255839,-0.719397 1.473233,-1.469136 1.62319,-2.218876c0.166677,-0.833333 0.416667,-0.833333 0.833333,-0.833333c0.416667,0 0.416667,0 0.833334,0c0.416666,0 0.583343,0 0.833333,0.833333c0.225257,0.750889 0.382871,1.501778 1.631178,2.222184c1.396703,0.379323 2.080569,0.002898 2.716751,-0.421213c0.707114,-0.471397 0.883883,-0.294627 1.178511,0c0.294628,0.294628 0.294628,0.294628 0.589256,0.589256c0.294628,0.294628 0.412486,0.412486 0,1.178511c-0.371678,0.69024 -0.791187,1.332649 -0.417904,2.724739c0.719396,1.255839 1.469135,1.473233 2.218875,1.62319c0.833333,0.166677 0.833333,0.416667 0.833333,0.833333c0,0.416667 0,0.416667 0,0.833334c0,0.416666 0,0.583343 -0.833333,0.833333c-0.750889,0.225257 -1.501778,0.382871 -2.222184,1.631178c-0.379323,1.396703 -0.002898,2.080569 0.421213,2.716751c0.471397,0.707114 0.294628,0.883883 0,1.178511c-0.294628,0.294628 -0.294628,0.294628 -0.589256,0.589256c-0.294628,0.294628 -0.412486,0.412486 -1.178511,0c-0.69024,-0.371678 -1.332649,-0.791187 -2.724739,-0.417904c-1.255839,0.719396 -1.473233,1.469135 -1.62319,2.218875c-0.166677,0.833333 -0.416667,0.833333 -0.833333,0.833333c-0.416667,0 -0.416667,0 -0.833334,0c-0.416666,0 -0.583343,0 -0.833333,-0.833333c-0.225257,-0.750889 -0.382871,-1.501778 -1.631178,-2.222184c-1.396703,-0.379323 -2.080569,-0.002898 -2.716751,0.421213c-0.707114,0.471397 -0.883883,0.294628 -1.178511,0c-0.294628,-0.294628 -0.294628,-0.294628 -0.589256,-0.589256c-0.294627,-0.294628 -0.412486,-0.412486 0,-1.178511c0.371678,-0.69024 0.791187,-1.332649 0.417905,-2.724739c-0.719397,-1.255839 -1.469136,-1.473233 -2.218876,-1.62319c-0.833333,-0.166677 -0.833333,-0.416667 -0.833333,-0.833333c0,-0.416667 0,-0.416667 0,-0.833334c0,-0.416666 0,-0.583343 0.833333,-0.833333c0.750889,-0.225257 1.501778,-0.382871 2.222184,-1.631178c0.379323,-1.396703 0.002898,-2.080569 -0.421213,-2.716751c-0.471397,-0.707114 -0.294627,-0.883883 0,-1.178511c0.294628,-0.294628 0.294628,-0.294628 0.589256,-0.589256c0.294628,-0.294627 0.412486,-0.412486 1.178511,0c0.69024,0.371678 1.332649,0.791187 2.724739,0.417905zm2.87319,11.697791c2.623353,0 4.75,-2.126647 4.75,-4.75c0,-2.623353 -2.126647,-4.75 -4.75,-4.75c-2.623353,0 -4.75,2.126647 -4.75,4.75c0,2.623353 2.126647,4.75 4.75,4.75z"/>
   </g>
  </g>
 </g>
    </symbol>

    <!-- 6 -->
    <symbol id="users">
<g>
  <title>background</title>
  <rect fill="none" id="canvas_background" height="402" width="582" y="-1" x="-1"/>
 </g>
 <g>
  <title>Layer 1</title>
  <g fill-rule="evenodd" fill="none" id="Page-2">
   <g id="users_24">
    <rect height="24" width="24" id="Mask"/>
    <path fill="#4a76a8" id="Mask" d="m14.828695,12.72435c0.783106,-0.161038 1.547811,-0.22435 2.171305,-0.22435c2.294118,0 6.5,0.857143 6.5,4.285714c0,1.5 -0.382353,1.714286 -1.147059,1.714286l-6.089934,0c0.157843,-0.48891 0.236993,-1.062268 0.236993,-1.714286c0,-1.722556 -0.63118,-3.066377 -1.671305,-4.061364zm-13.328695,4.061364c0,-3.428571 4.205882,-4.285714 6.5,-4.285714c2.294118,0 6.5,0.857143 6.5,4.285714c0,1.5 -0.382353,1.714286 -1.147059,1.714286l-10.705882,0c-0.764706,0 -1.147059,-0.214286 -1.147059,-1.714286zm9.5,-8.785714c0,1.6575 -1.3425,3 -3,3c-1.6575,0 -3,-1.3425 -3,-3c0,-1.6575 1.3425,-3 3,-3c1.6575,0 3,1.3425 3,3zm9,0c0,1.6575 -1.3425,3 -3,3c-1.6575,0 -3,-1.3425 -3,-3c0,-1.6575 1.3425,-3 3,-3c1.6575,0 3,1.3425 3,3z"/>
   </g>
  </g>
 </g>
    </symbol>

    <!-- Navbar icons finish -->

    <!-- Header icons start -->

    <!-- 7 -->
    <symbol width="15px" height="15px" id="searchinput">
<path d="m9.95856088 8.72112401 3.66015752 3.66015759c.3417088.3417087.3417088.8957281 0 1.2374368-.3417087.3417088-.8957281.3417088-1.2374368 0l-3.66015759-3.66015752c-.90534437.65521472-2.01813042 1.04143912-3.22112401 1.04143912-3.03756612 0-5.5-2.46243388-5.5-5.5s2.46243388-5.5 5.5-5.5 5.5 2.46243388 5.5 5.5c0 1.20299359-.3862244 2.31577964-1.04143912 3.22112401zm-4.45856088.52887599c2.07106781 0 3.75-1.67893219 3.75-3.75s-1.67893219-3.75-3.75-3.75-3.75 1.67893219-3.75 3.75 1.67893219 3.75 3.75 3.75z" fill="#86a1bf"/>
    </symbol >

    <!-- 8 -->
    <symbol id="notify_active">
<g>
  <title>background</title>
  <rect fill="none" id="canvas_background" height="402" width="582" y="-1" x="-1"/>
 </g>
 <g>
  <title>Layer 1</title>
  <path id="svg_1" fill-rule="evenodd" fill="#ffffff" d="m10,19c-1.35417,0 -2.5,-0.7 -2.5,-2l5,0c0,1.3 -1.14583,2 -2.5,2zm5.99569,-7c0,1.5 2.00431,1.5 2.00431,2.5c0,0.5 0,1.5 -2.1044,1.5l-11.91129,0c-1.98431,0 -1.98431,-1 -1.98431,-1.5c0,-1 1.98431,-1 2,-2.5l0,-3c0,-4 2.09725,-6.5 5,-6.9l0,-0.1c0,-0.6 0.5,-1 1,-1s1,0.4 1,1l0,0.1c2.90275,0.4 4.99569,2.9 4.99569,6.9l0,3z"/>
 </g>
    </symbol>

    <!-- 9 -->
    <symbol  id="notify">
<path d="m8 18c-1.35416667 0-2.5-.7-2.5-2h5c0 1.3-1.14583333 2-2.5 2zm5.9956933-7c0 1.5 2.0043067 1.5 2.0043067 2.5 0 .5 0 1.5-2.1044016 1.5h-11.91128855c-1.98430985 0-1.98430985-1-1.98430985-1.5 0-1 1.98430985-1 2-2.5v-3c0-4 2.09724901-6.5 5-6.9v-.1c0-.6.5-1 1-1s1 .4 1 1v.1c2.902751.4 4.9956933 2.9 4.9956933 6.9z" fill="#1e3c5f" fill-rule="evenodd" transform="translate(2 1)"/>
    </symbol>

    <!-- 10 -->
    <symbol id="dropdown">
<g>
  <title>background</title>
  <rect fill="none" id="canvas_background" height="402" width="582" y="-1" x="-1"/>
 </g>
 <g>
  <title>Layer 1</title>
  <g fill-rule="evenodd" fill="none" id="Page-2">
   <g id="dropdown_24">
    <rect height="24" width="24" y="0" x="0" id="Rectangle-4"/>
    <path fill-rule="nonzero" fill="#ffffff" id="Mask" d="m12,14.198292l-5.359816,-4.466513c-0.424276,-0.353564 -1.054841,-0.29624 -1.408405,0.128037c-0.353564,0.424276 -0.29624,1.054841 0.128037,1.408405l6,5c0.370846,0.309039 0.909522,0.309039 1.280368,0l6,-5c0.424277,-0.353564 0.481601,-0.984129 0.128037,-1.408405c-0.353564,-0.424277 -0.984129,-0.481601 -1.408405,-0.128037l-5.359816,4.466513z"/>
   </g>
  </g>
 </g>
    </symbol>
    
    <!-- 1 -->
    <symbol>

    </symbol>
    <!-- 1 -->
    <symbol>

    </symbol>
    <!-- 1 -->
    <symbol>

    </symbol>
    <!-- 1 -->
    <symbol>

    </symbol>
    <!-- 1 -->
    <symbol>

    </symbol>
    <!-- 1 -->
    <symbol>

    </symbol>
    <!-- 1 -->
    <symbol>

    </symbol>
    <!-- 1 -->
    <symbol>

    </symbol>
    <!-- 1 -->
    <symbol>

    </symbol>
    <!-- 1 -->
    <symbol>

    </symbol>
    <!-- 1 -->
    <symbol>

    </symbol>
    <!-- 1 -->
    <symbol>

    </symbol>
    <!-- 1 -->
    <symbol>

    </symbol>
    




</svg>